<?xml version="1.0" encoding="UTF-8" standalone="no"?>
<!DOCTYPE svg PUBLIC "-//W3C//DTD SVG 1.1//EN"
 "http://www.w3.org/Graphics/SVG/1.1/DTD/svg11.dtd">
<!-- Generated by graphviz version 2.36.0 (20140111.2315)
 -->
<!-- Title: controllers_diagram Pages: 1 -->
<svg width="647pt" height="564pt"
 viewBox="0.00 0.00 647.00 564.00" xmlns="http://www.w3.org/2000/svg" xmlns:xlink="http://www.w3.org/1999/xlink">
<g id="graph0" class="graph" transform="scale(1 1) rotate(0) translate(4 560)">
<title>controllers_diagram</title>
<polygon fill="none" stroke="none" points="-4,4 -4,-560 643,-560 643,4 -4,4"/>
<!-- _diagram_info -->
<g id="node1" class="node"><title>_diagram_info</title>
<text text-anchor="start" x="433" y="-454.6" font-family="Times,serif" font-size="13.00">Controllers diagram</text>
<text text-anchor="start" x="433" y="-440.6" font-family="Times,serif" font-size="13.00">Date: Jan 23 2017 &#45; 17:52</text>
<text text-anchor="start" x="433" y="-426.6" font-family="Times,serif" font-size="13.00">Migration version: 20170112224323</text>
<text text-anchor="start" x="433" y="-412.6" font-family="Times,serif" font-size="13.00">Generated by RailRoady 1.5.2</text>
<text text-anchor="start" x="433" y="-398.6" font-family="Times,serif" font-size="13.00">http://railroady.prestonlee.com</text>
</g>
<!-- LoginsController -->
<g id="node2" class="node"><title>LoginsController</title>
<path fill="none" stroke="black" d="M46,-34.5C46,-34.5 132,-34.5 132,-34.5 138,-34.5 144,-40.5 144,-46.5 144,-46.5 144,-145.5 144,-145.5 144,-151.5 138,-157.5 132,-157.5 132,-157.5 46,-157.5 46,-157.5 40,-157.5 34,-151.5 34,-145.5 34,-145.5 34,-46.5 34,-46.5 34,-40.5 40,-34.5 46,-34.5"/>
<text text-anchor="middle" x="89" y="-142.3" font-family="Times,serif" font-size="14.00">LoginsController</text>
<polyline fill="none" stroke="black" points="34,-134.5 144,-134.5 "/>
<text text-anchor="start" x="42" y="-119.3" font-family="Times,serif" font-size="14.00">create</text>
<text text-anchor="start" x="42" y="-104.3" font-family="Times,serif" font-size="14.00">destroy</text>
<text text-anchor="start" x="42" y="-89.3" font-family="Times,serif" font-size="14.00">new</text>
<polyline fill="none" stroke="black" points="34,-81.5 144,-81.5 "/>
<polyline fill="none" stroke="black" points="34,-57.5 144,-57.5 "/>
<text text-anchor="start" x="42" y="-42.3" font-family="Times,serif" font-size="14.00">_layout</text>
</g>
<!-- WelcomeController -->
<g id="node3" class="node"><title>WelcomeController</title>
<path fill="none" stroke="black" d="M335,-0.5C335,-0.5 436,-0.5 436,-0.5 442,-0.5 448,-6.5 448,-12.5 448,-12.5 448,-81.5 448,-81.5 448,-87.5 442,-93.5 436,-93.5 436,-93.5 335,-93.5 335,-93.5 329,-93.5 323,-87.5 323,-81.5 323,-81.5 323,-12.5 323,-12.5 323,-6.5 329,-0.5 335,-0.5"/>
<text text-anchor="middle" x="385.5" y="-78.3" font-family="Times,serif" font-size="14.00">WelcomeController</text>
<polyline fill="none" stroke="black" points="323,-70.5 448,-70.5 "/>
<text text-anchor="start" x="331" y="-55.3" font-family="Times,serif" font-size="14.00">home</text>
<polyline fill="none" stroke="black" points="323,-47.5 448,-47.5 "/>
<polyline fill="none" stroke="black" points="323,-23.5 448,-23.5 "/>
<text text-anchor="start" x="331" y="-8.3" font-family="Times,serif" font-size="14.00">_layout</text>
</g>
<!-- UsersController -->
<g id="node4" class="node"><title>UsersController</title>
<path fill="none" stroke="black" d="M335,-119.5C335,-119.5 430,-119.5 430,-119.5 436,-119.5 442,-125.5 442,-131.5 442,-131.5 442,-350.5 442,-350.5 442,-356.5 436,-362.5 430,-362.5 430,-362.5 335,-362.5 335,-362.5 329,-362.5 323,-356.5 323,-350.5 323,-350.5 323,-131.5 323,-131.5 323,-125.5 329,-119.5 335,-119.5"/>
<text text-anchor="middle" x="382.5" y="-347.3" font-family="Times,serif" font-size="14.00">UsersController</text>
<polyline fill="none" stroke="black" points="323,-339.5 442,-339.5 "/>
<text text-anchor="start" x="331" y="-324.3" font-family="Times,serif" font-size="14.00">approve</text>
<text text-anchor="start" x="331" y="-309.3" font-family="Times,serif" font-size="14.00">create</text>
<text text-anchor="start" x="331" y="-294.3" font-family="Times,serif" font-size="14.00">edit</text>
<text text-anchor="start" x="331" y="-279.3" font-family="Times,serif" font-size="14.00">index</text>
<text text-anchor="start" x="331" y="-264.3" font-family="Times,serif" font-size="14.00">new</text>
<text text-anchor="start" x="331" y="-249.3" font-family="Times,serif" font-size="14.00">pending</text>
<text text-anchor="start" x="331" y="-234.3" font-family="Times,serif" font-size="14.00">show</text>
<text text-anchor="start" x="331" y="-219.3" font-family="Times,serif" font-size="14.00">update</text>
<polyline fill="none" stroke="black" points="323,-211.5 442,-211.5 "/>
<polyline fill="none" stroke="black" points="323,-187.5 442,-187.5 "/>
<text text-anchor="start" x="331" y="-172.3" font-family="Times,serif" font-size="14.00">_layout</text>
<text text-anchor="start" x="331" y="-157.3" font-family="Times,serif" font-size="14.00">require_same_user</text>
<text text-anchor="start" x="331" y="-142.3" font-family="Times,serif" font-size="14.00">set_user</text>
<text text-anchor="start" x="331" y="-127.3" font-family="Times,serif" font-size="14.00">user_params</text>
</g>
<!-- SpecialtiesController -->
<g id="node5" class="node"><title>SpecialtiesController</title>
<path fill="none" stroke="black" d="M165,-357.5C165,-357.5 272,-357.5 272,-357.5 278,-357.5 284,-363.5 284,-369.5 284,-369.5 284,-543.5 284,-543.5 284,-549.5 278,-555.5 272,-555.5 272,-555.5 165,-555.5 165,-555.5 159,-555.5 153,-549.5 153,-543.5 153,-543.5 153,-369.5 153,-369.5 153,-363.5 159,-357.5 165,-357.5"/>
<text text-anchor="middle" x="218.5" y="-540.3" font-family="Times,serif" font-size="14.00">SpecialtiesController</text>
<polyline fill="none" stroke="black" points="153,-532.5 284,-532.5 "/>
<text text-anchor="start" x="161" y="-517.3" font-family="Times,serif" font-size="14.00">create</text>
<text text-anchor="start" x="161" y="-502.3" font-family="Times,serif" font-size="14.00">destroy</text>
<text text-anchor="start" x="161" y="-487.3" font-family="Times,serif" font-size="14.00">edit</text>
<text text-anchor="start" x="161" y="-472.3" font-family="Times,serif" font-size="14.00">new</text>
<text text-anchor="start" x="161" y="-457.3" font-family="Times,serif" font-size="14.00">show</text>
<text text-anchor="start" x="161" y="-442.3" font-family="Times,serif" font-size="14.00">update</text>
<polyline fill="none" stroke="black" points="153,-434.5 284,-434.5 "/>
<polyline fill="none" stroke="black" points="153,-410.5 284,-410.5 "/>
<text text-anchor="start" x="161" y="-395.3" font-family="Times,serif" font-size="14.00">_layout</text>
<text text-anchor="start" x="161" y="-380.3" font-family="Times,serif" font-size="14.00">set_specialty</text>
<text text-anchor="start" x="161" y="-365.3" font-family="Times,serif" font-size="14.00">specialty_params</text>
</g>
<!-- ProjectsController -->
<g id="node6" class="node"><title>ProjectsController</title>
<path fill="none" stroke="black" d="M182,-51.5C182,-51.5 277,-51.5 277,-51.5 283,-51.5 289,-57.5 289,-63.5 289,-63.5 289,-312.5 289,-312.5 289,-318.5 283,-324.5 277,-324.5 277,-324.5 182,-324.5 182,-324.5 176,-324.5 170,-318.5 170,-312.5 170,-312.5 170,-63.5 170,-63.5 170,-57.5 176,-51.5 182,-51.5"/>
<text text-anchor="middle" x="229.5" y="-309.3" font-family="Times,serif" font-size="14.00">ProjectsController</text>
<polyline fill="none" stroke="black" points="170,-301.5 289,-301.5 "/>
<text text-anchor="start" x="178" y="-286.3" font-family="Times,serif" font-size="14.00">approve</text>
<text text-anchor="start" x="178" y="-271.3" font-family="Times,serif" font-size="14.00">create</text>
<text text-anchor="start" x="178" y="-256.3" font-family="Times,serif" font-size="14.00">destroy</text>
<text text-anchor="start" x="178" y="-241.3" font-family="Times,serif" font-size="14.00">edit</text>
<text text-anchor="start" x="178" y="-226.3" font-family="Times,serif" font-size="14.00">index</text>
<text text-anchor="start" x="178" y="-211.3" font-family="Times,serif" font-size="14.00">like</text>
<text text-anchor="start" x="178" y="-196.3" font-family="Times,serif" font-size="14.00">new</text>
<text text-anchor="start" x="178" y="-181.3" font-family="Times,serif" font-size="14.00">pending</text>
<text text-anchor="start" x="178" y="-166.3" font-family="Times,serif" font-size="14.00">show</text>
<text text-anchor="start" x="178" y="-151.3" font-family="Times,serif" font-size="14.00">update</text>
<polyline fill="none" stroke="black" points="170,-143.5 289,-143.5 "/>
<polyline fill="none" stroke="black" points="170,-119.5 289,-119.5 "/>
<text text-anchor="start" x="178" y="-104.3" font-family="Times,serif" font-size="14.00">_layout</text>
<text text-anchor="start" x="178" y="-89.3" font-family="Times,serif" font-size="14.00">project_params</text>
<text text-anchor="start" x="178" y="-74.3" font-family="Times,serif" font-size="14.00">require_same_user</text>
<text text-anchor="start" x="178" y="-59.3" font-family="Times,serif" font-size="14.00">set_project</text>
</g>
<!-- ApplicationController -->
<g id="node7" class="node"><title>ApplicationController</title>
<path fill="none" stroke="black" d="M12,-187.5C12,-187.5 124,-187.5 124,-187.5 130,-187.5 136,-193.5 136,-199.5 136,-199.5 136,-313.5 136,-313.5 136,-319.5 130,-325.5 124,-325.5 124,-325.5 12,-325.5 12,-325.5 6,-325.5 -2.84217e-14,-319.5 -2.84217e-14,-313.5 -2.84217e-14,-313.5 -2.84217e-14,-199.5 -2.84217e-14,-199.5 -2.84217e-14,-193.5 6,-187.5 12,-187.5"/>
<text text-anchor="middle" x="68" y="-310.3" font-family="Times,serif" font-size="14.00">ApplicationController</text>
<polyline fill="none" stroke="black" points="-2.84217e-14,-302.5 136,-302.5 "/>
<text text-anchor="start" x="8" y="-287.3" font-family="Times,serif" font-size="14.00">admin_user</text>
<text text-anchor="start" x="8" y="-272.3" font-family="Times,serif" font-size="14.00">current_user</text>
<text text-anchor="start" x="8" y="-257.3" font-family="Times,serif" font-size="14.00">logged_in?</text>
<text text-anchor="start" x="8" y="-242.3" font-family="Times,serif" font-size="14.00">require_user</text>
<polyline fill="none" stroke="black" points="-2.84217e-14,-234.5 136,-234.5 "/>
<polyline fill="none" stroke="black" points="-2.84217e-14,-210.5 136,-210.5 "/>
<text text-anchor="start" x="8" y="-195.3" font-family="Times,serif" font-size="14.00">_layout</text>
</g>
</g>
</svg>
