<?xml version="1.0" encoding="UTF-8" standalone="no"?>
<!DOCTYPE svg PUBLIC "-//W3C//DTD SVG 1.1//EN"
 "http://www.w3.org/Graphics/SVG/1.1/DTD/svg11.dtd">
<!-- Generated by graphviz version 2.36.0 (20140111.2315)
 -->
<!-- Title: models_diagram Pages: 1 -->
<svg width="660pt" height="980pt"
 viewBox="0.00 0.00 660.00 980.00" xmlns="http://www.w3.org/2000/svg" xmlns:xlink="http://www.w3.org/1999/xlink">
<g id="graph0" class="graph" transform="scale(1 1) rotate(0) translate(4 976)">
<title>models_diagram</title>
<polygon fill="none" stroke="none" points="-4,4 -4,-976 656,-976 656,4 -4,4"/>
<!-- _diagram_info -->
<g id="node1" class="node"><title>_diagram_info</title>
<text text-anchor="start" x="8" y="-950.6" font-family="Times,serif" font-size="13.00">Models diagram</text>
<text text-anchor="start" x="8" y="-936.6" font-family="Times,serif" font-size="13.00">Date: Jan 23 2017 &#45; 17:52</text>
<text text-anchor="start" x="8" y="-922.6" font-family="Times,serif" font-size="13.00">Migration version: 20170112224323</text>
<text text-anchor="start" x="8" y="-908.6" font-family="Times,serif" font-size="13.00">Generated by RailRoady 1.5.2</text>
<text text-anchor="start" x="8" y="-894.6" font-family="Times,serif" font-size="13.00">http://railroady.prestonlee.com</text>
</g>
<!-- Specialty -->
<g id="node2" class="node"><title>Specialty</title>
<path fill="none" stroke="black" d="M244.5,-895.5C244.5,-895.5 315.5,-895.5 315.5,-895.5 321.5,-895.5 327.5,-901.5 327.5,-907.5 327.5,-907.5 327.5,-944.5 327.5,-944.5 327.5,-950.5 321.5,-956.5 315.5,-956.5 315.5,-956.5 244.5,-956.5 244.5,-956.5 238.5,-956.5 232.5,-950.5 232.5,-944.5 232.5,-944.5 232.5,-907.5 232.5,-907.5 232.5,-901.5 238.5,-895.5 244.5,-895.5"/>
<text text-anchor="middle" x="280" y="-941.3" font-family="Times,serif" font-size="14.00">Specialty</text>
<polyline fill="none" stroke="black" points="232.5,-933.5 327.5,-933.5 "/>
<text text-anchor="start" x="240.5" y="-918.3" font-family="Times,serif" font-size="14.00">id :INTEGER</text>
<text text-anchor="start" x="240.5" y="-903.3" font-family="Times,serif" font-size="14.00">name :varchar</text>
</g>
<!-- ProjectSpecialty -->
<g id="node5" class="node"><title>ProjectSpecialty</title>
<path fill="none" stroke="black" d="M187.5,-1C187.5,-1 290.5,-1 290.5,-1 296.5,-1 302.5,-7 302.5,-13 302.5,-13 302.5,-65 302.5,-65 302.5,-71 296.5,-77 290.5,-77 290.5,-77 187.5,-77 187.5,-77 181.5,-77 175.5,-71 175.5,-65 175.5,-65 175.5,-13 175.5,-13 175.5,-7 181.5,-1 187.5,-1"/>
<text text-anchor="middle" x="239" y="-61.8" font-family="Times,serif" font-size="14.00">ProjectSpecialty</text>
<polyline fill="none" stroke="black" points="175.5,-54 302.5,-54 "/>
<text text-anchor="start" x="183.5" y="-38.8" font-family="Times,serif" font-size="14.00">id :INTEGER</text>
<text text-anchor="start" x="183.5" y="-23.8" font-family="Times,serif" font-size="14.00">project_id :integer</text>
<text text-anchor="start" x="183.5" y="-8.8" font-family="Times,serif" font-size="14.00">specialty_id :integer</text>
</g>
<!-- Specialty&#45;&gt;ProjectSpecialty -->
<g id="edge2" class="edge"><title>Specialty&#45;&gt;ProjectSpecialty</title>
<path fill="none" stroke="#dd6953" d="M265.064,-887.771C220.356,-770.786 96.1509,-401.299 187,-114 190.121,-104.129 195.084,-94.4349 200.732,-85.4804"/>
<ellipse fill="none" stroke="#dd6953" cx="266.578" cy="-891.698" rx="4.00001" ry="4.00001"/>
<polygon fill="#dd6953" stroke="#dd6953" points="200.754,-85.4479 210.058,-79.645 203.537,-81.2941 206.32,-77.1402 206.32,-77.1402 206.32,-77.1402 203.537,-81.2941 202.581,-74.6354 200.754,-85.4479 200.754,-85.4479"/>
</g>
<!-- Project -->
<g id="node7" class="node"><title>Project</title>
<path fill="none" stroke="black" d="M353.5,-114.5C353.5,-114.5 472.5,-114.5 472.5,-114.5 478.5,-114.5 484.5,-120.5 484.5,-126.5 484.5,-126.5 484.5,-403.5 484.5,-403.5 484.5,-409.5 478.5,-415.5 472.5,-415.5 472.5,-415.5 353.5,-415.5 353.5,-415.5 347.5,-415.5 341.5,-409.5 341.5,-403.5 341.5,-403.5 341.5,-126.5 341.5,-126.5 341.5,-120.5 347.5,-114.5 353.5,-114.5"/>
<text text-anchor="middle" x="413" y="-400.3" font-family="Times,serif" font-size="14.00">Project</text>
<polyline fill="none" stroke="black" points="341.5,-392.5 484.5,-392.5 "/>
<text text-anchor="start" x="349.5" y="-377.3" font-family="Times,serif" font-size="14.00">id :INTEGER</text>
<text text-anchor="start" x="349.5" y="-362.3" font-family="Times,serif" font-size="14.00">user_id :integer</text>
<text text-anchor="start" x="349.5" y="-347.3" font-family="Times,serif" font-size="14.00">name :varchar</text>
<text text-anchor="start" x="349.5" y="-332.3" font-family="Times,serif" font-size="14.00">description :text</text>
<text text-anchor="start" x="349.5" y="-317.3" font-family="Times,serif" font-size="14.00">start_date :date</text>
<text text-anchor="start" x="349.5" y="-302.3" font-family="Times,serif" font-size="14.00">end_date :date</text>
<text text-anchor="start" x="349.5" y="-287.3" font-family="Times,serif" font-size="14.00">country_id :integer</text>
<text text-anchor="start" x="349.5" y="-272.3" font-family="Times,serif" font-size="14.00">website :varchar</text>
<text text-anchor="start" x="349.5" y="-257.3" font-family="Times,serif" font-size="14.00">immediate :boolean</text>
<text text-anchor="start" x="349.5" y="-242.3" font-family="Times,serif" font-size="14.00">created_at :datetime</text>
<text text-anchor="start" x="349.5" y="-227.3" font-family="Times,serif" font-size="14.00">updated_at :datetime</text>
<text text-anchor="start" x="349.5" y="-212.3" font-family="Times,serif" font-size="14.00">picture :varchar</text>
<text text-anchor="start" x="349.5" y="-197.3" font-family="Times,serif" font-size="14.00">document :varchar</text>
<text text-anchor="start" x="349.5" y="-182.3" font-family="Times,serif" font-size="14.00">like_count :integer</text>
<text text-anchor="start" x="349.5" y="-167.3" font-family="Times,serif" font-size="14.00">contact_email :varchar</text>
<text text-anchor="start" x="349.5" y="-152.3" font-family="Times,serif" font-size="14.00">contact_phone :varchar</text>
<text text-anchor="start" x="349.5" y="-137.3" font-family="Times,serif" font-size="14.00">frequency :varchar</text>
<text text-anchor="start" x="349.5" y="-122.3" font-family="Times,serif" font-size="14.00">approved :boolean</text>
</g>
<!-- Specialty&#45;&gt;Project -->
<g id="edge1" class="edge"><title>Specialty&#45;&gt;Project</title>
<path fill="none" stroke="#ba9b63" d="M283.169,-885.455C291.781,-779.31 315.726,-493.368 327,-452 330.069,-440.737 333.765,-429.306 337.875,-417.934"/>
<polygon fill="#ba9b63" stroke="#ba9b63" points="283.167,-885.477 277.875,-895.082 282.764,-890.461 282.36,-895.445 282.36,-895.445 282.36,-895.445 282.764,-890.461 286.846,-895.808 283.167,-885.477 283.167,-885.477"/>
<polygon fill="#ba9b63" stroke="#ba9b63" points="337.935,-417.774 345.639,-409.97 339.678,-413.088 341.421,-408.401 341.421,-408.401 341.421,-408.401 339.678,-413.088 337.203,-406.833 337.935,-417.774 337.935,-417.774"/>
</g>
<!-- UserSpecialty -->
<g id="node8" class="node"><title>UserSpecialty</title>
<path fill="none" stroke="black" d="M208.5,-227C208.5,-227 311.5,-227 311.5,-227 317.5,-227 323.5,-233 323.5,-239 323.5,-239 323.5,-291 323.5,-291 323.5,-297 317.5,-303 311.5,-303 311.5,-303 208.5,-303 208.5,-303 202.5,-303 196.5,-297 196.5,-291 196.5,-291 196.5,-239 196.5,-239 196.5,-233 202.5,-227 208.5,-227"/>
<text text-anchor="middle" x="260" y="-287.8" font-family="Times,serif" font-size="14.00">UserSpecialty</text>
<polyline fill="none" stroke="black" points="196.5,-280 323.5,-280 "/>
<text text-anchor="start" x="204.5" y="-264.8" font-family="Times,serif" font-size="14.00">id :INTEGER</text>
<text text-anchor="start" x="204.5" y="-249.8" font-family="Times,serif" font-size="14.00">user_id :integer</text>
<text text-anchor="start" x="204.5" y="-234.8" font-family="Times,serif" font-size="14.00">specialty_id :integer</text>
</g>
<!-- Specialty&#45;&gt;UserSpecialty -->
<g id="edge4" class="edge"><title>Specialty&#45;&gt;UserSpecialty</title>
<path fill="none" stroke="#7435f5" d="M278.85,-887.105C275.413,-773.862 265.224,-438.14 261.438,-313.383"/>
<ellipse fill="none" stroke="#7435f5" cx="278.98" cy="-891.406" rx="4" ry="4"/>
<polygon fill="#7435f5" stroke="#7435f5" points="261.427,-313.019 265.622,-302.887 261.275,-308.021 261.124,-303.023 261.124,-303.023 261.124,-303.023 261.275,-308.021 256.626,-303.16 261.427,-313.019 261.427,-313.019"/>
</g>
<!-- User -->
<g id="node9" class="node"><title>User</title>
<path fill="none" stroke="black" d="M347.5,-452.5C347.5,-452.5 478.5,-452.5 478.5,-452.5 484.5,-452.5 490.5,-458.5 490.5,-464.5 490.5,-464.5 490.5,-831.5 490.5,-831.5 490.5,-837.5 484.5,-843.5 478.5,-843.5 478.5,-843.5 347.5,-843.5 347.5,-843.5 341.5,-843.5 335.5,-837.5 335.5,-831.5 335.5,-831.5 335.5,-464.5 335.5,-464.5 335.5,-458.5 341.5,-452.5 347.5,-452.5"/>
<text text-anchor="middle" x="413" y="-828.3" font-family="Times,serif" font-size="14.00">User</text>
<polyline fill="none" stroke="black" points="335.5,-820.5 490.5,-820.5 "/>
<text text-anchor="start" x="343.5" y="-805.3" font-family="Times,serif" font-size="14.00">id :INTEGER</text>
<text text-anchor="start" x="343.5" y="-790.3" font-family="Times,serif" font-size="14.00">prefix :varchar</text>
<text text-anchor="start" x="343.5" y="-775.3" font-family="Times,serif" font-size="14.00">first_name :varchar</text>
<text text-anchor="start" x="343.5" y="-760.3" font-family="Times,serif" font-size="14.00">last_name :varchar</text>
<text text-anchor="start" x="343.5" y="-745.3" font-family="Times,serif" font-size="14.00">suffix :varchar</text>
<text text-anchor="start" x="343.5" y="-730.3" font-family="Times,serif" font-size="14.00">address :text</text>
<text text-anchor="start" x="343.5" y="-715.3" font-family="Times,serif" font-size="14.00">city :varchar</text>
<text text-anchor="start" x="343.5" y="-700.3" font-family="Times,serif" font-size="14.00">email :varchar</text>
<text text-anchor="start" x="343.5" y="-685.3" font-family="Times,serif" font-size="14.00">phone_work :varchar</text>
<text text-anchor="start" x="343.5" y="-670.3" font-family="Times,serif" font-size="14.00">phone_mobile :varchar</text>
<text text-anchor="start" x="343.5" y="-655.3" font-family="Times,serif" font-size="14.00">fax_number :varchar</text>
<text text-anchor="start" x="343.5" y="-640.3" font-family="Times,serif" font-size="14.00">institution :varchar</text>
<text text-anchor="start" x="343.5" y="-625.3" font-family="Times,serif" font-size="14.00">status_id :integer</text>
<text text-anchor="start" x="343.5" y="-610.3" font-family="Times,serif" font-size="14.00">created_at :datetime</text>
<text text-anchor="start" x="343.5" y="-595.3" font-family="Times,serif" font-size="14.00">updated_at :datetime</text>
<text text-anchor="start" x="343.5" y="-580.3" font-family="Times,serif" font-size="14.00">picture :varchar</text>
<text text-anchor="start" x="343.5" y="-565.3" font-family="Times,serif" font-size="14.00">password_digest :varchar</text>
<text text-anchor="start" x="343.5" y="-550.3" font-family="Times,serif" font-size="14.00">state :varchar</text>
<text text-anchor="start" x="343.5" y="-535.3" font-family="Times,serif" font-size="14.00">country_id :integer</text>
<text text-anchor="start" x="343.5" y="-520.3" font-family="Times,serif" font-size="14.00">address_type :integer</text>
<text text-anchor="start" x="343.5" y="-505.3" font-family="Times,serif" font-size="14.00">zipcode :integer</text>
<text text-anchor="start" x="343.5" y="-490.3" font-family="Times,serif" font-size="14.00">admin :boolean</text>
<text text-anchor="start" x="343.5" y="-475.3" font-family="Times,serif" font-size="14.00">status_other :varchar</text>
<text text-anchor="start" x="343.5" y="-460.3" font-family="Times,serif" font-size="14.00">approved :boolean</text>
</g>
<!-- Specialty&#45;&gt;User -->
<g id="edge3" class="edge"><title>Specialty&#45;&gt;User</title>
<path fill="none" stroke="#ec6b3a" d="M298.606,-886.388C307.521,-867.89 318.88,-844.316 330.965,-819.238"/>
<polygon fill="#ec6b3a" stroke="#ec6b3a" points="298.574,-886.455 290.179,-893.51 296.404,-890.959 294.233,-895.463 294.233,-895.463 294.233,-895.463 296.404,-890.959 298.287,-897.417 298.574,-886.455 298.574,-886.455"/>
<polygon fill="#ec6b3a" stroke="#ec6b3a" points="331.106,-818.946 339.501,-811.891 333.276,-814.442 335.447,-809.937 335.447,-809.937 335.447,-809.937 333.276,-814.442 331.393,-807.984 331.106,-818.946 331.106,-818.946"/>
</g>
<!-- Country -->
<g id="node3" class="node"><title>Country</title>
<path fill="none" stroke="black" d="M490.5,-880.5C490.5,-880.5 573.5,-880.5 573.5,-880.5 579.5,-880.5 585.5,-886.5 585.5,-892.5 585.5,-892.5 585.5,-959.5 585.5,-959.5 585.5,-965.5 579.5,-971.5 573.5,-971.5 573.5,-971.5 490.5,-971.5 490.5,-971.5 484.5,-971.5 478.5,-965.5 478.5,-959.5 478.5,-959.5 478.5,-892.5 478.5,-892.5 478.5,-886.5 484.5,-880.5 490.5,-880.5"/>
<text text-anchor="middle" x="532" y="-956.3" font-family="Times,serif" font-size="14.00">Country</text>
<polyline fill="none" stroke="black" points="478.5,-948.5 585.5,-948.5 "/>
<text text-anchor="start" x="486.5" y="-933.3" font-family="Times,serif" font-size="14.00">id :INTEGER</text>
<text text-anchor="start" x="486.5" y="-918.3" font-family="Times,serif" font-size="14.00">name :varchar</text>
<text text-anchor="start" x="486.5" y="-903.3" font-family="Times,serif" font-size="14.00">alpha_2 :varchar</text>
<text text-anchor="start" x="486.5" y="-888.3" font-family="Times,serif" font-size="14.00">alpha_3 :varchar</text>
</g>
<!-- Status -->
<g id="node4" class="node"><title>Status</title>
<path fill="none" stroke="black" d="M377.5,-895.5C377.5,-895.5 448.5,-895.5 448.5,-895.5 454.5,-895.5 460.5,-901.5 460.5,-907.5 460.5,-907.5 460.5,-944.5 460.5,-944.5 460.5,-950.5 454.5,-956.5 448.5,-956.5 448.5,-956.5 377.5,-956.5 377.5,-956.5 371.5,-956.5 365.5,-950.5 365.5,-944.5 365.5,-944.5 365.5,-907.5 365.5,-907.5 365.5,-901.5 371.5,-895.5 377.5,-895.5"/>
<text text-anchor="middle" x="413" y="-941.3" font-family="Times,serif" font-size="14.00">Status</text>
<polyline fill="none" stroke="black" points="365.5,-933.5 460.5,-933.5 "/>
<text text-anchor="start" x="373.5" y="-918.3" font-family="Times,serif" font-size="14.00">id :INTEGER</text>
<text text-anchor="start" x="373.5" y="-903.3" font-family="Times,serif" font-size="14.00">name :varchar</text>
</g>
<!-- Status&#45;&gt;User -->
<g id="edge5" class="edge"><title>Status&#45;&gt;User</title>
<path fill="none" stroke="#50ec02" d="M413,-887.193C413,-877.316 413,-865.955 413,-853.665"/>
<ellipse fill="none" stroke="#50ec02" cx="413" cy="-891.463" rx="4" ry="4"/>
<polygon fill="#50ec02" stroke="#50ec02" points="413,-853.62 417.5,-843.62 413,-848.62 413,-843.62 413,-843.62 413,-843.62 413,-848.62 408.5,-843.62 413,-853.62 413,-853.62"/>
</g>
<!-- Like -->
<g id="node6" class="node"><title>Like</title>
<path fill="none" stroke="black" d="M385,-1C385,-1 477,-1 477,-1 483,-1 489,-7 489,-13 489,-13 489,-65 489,-65 489,-71 483,-77 477,-77 477,-77 385,-77 385,-77 379,-77 373,-71 373,-65 373,-65 373,-13 373,-13 373,-7 379,-1 385,-1"/>
<text text-anchor="middle" x="431" y="-61.8" font-family="Times,serif" font-size="14.00">Like</text>
<polyline fill="none" stroke="black" points="373,-54 489,-54 "/>
<text text-anchor="start" x="381" y="-38.8" font-family="Times,serif" font-size="14.00">id :INTEGER</text>
<text text-anchor="start" x="381" y="-23.8" font-family="Times,serif" font-size="14.00">project_id :integer</text>
<text text-anchor="start" x="381" y="-8.8" font-family="Times,serif" font-size="14.00">user_id :integer</text>
</g>
<!-- Project&#45;&gt;ProjectSpecialty -->
<g id="edge6" class="edge"><title>Project&#45;&gt;ProjectSpecialty</title>
<path fill="none" stroke="#288eba" d="M336.494,-119.52C335.012,-117.65 333.514,-115.809 332,-114 323.048,-103.305 312.34,-93.0989 301.427,-83.869"/>
<ellipse fill="none" stroke="#288eba" cx="339.029" cy="-122.815" rx="4.00002" ry="4.00002"/>
<polygon fill="#288eba" stroke="#288eba" points="301.193,-83.6765 296.324,-73.8509 297.33,-80.5021 293.467,-77.3277 293.467,-77.3277 293.467,-77.3277 297.33,-80.5021 290.61,-80.8044 301.193,-83.6765 301.193,-83.6765"/>
</g>
<!-- Project&#45;&gt;Like -->
<g id="edge7" class="edge"><title>Project&#45;&gt;Like</title>
<path fill="none" stroke="#0c2f0b" d="M425.68,-106.199C426.203,-99.6923 426.706,-93.4344 427.18,-87.5379"/>
<ellipse fill="none" stroke="#0c2f0b" cx="425.352" cy="-110.29" rx="4" ry="4"/>
<polygon fill="#0c2f0b" stroke="#0c2f0b" points="427.198,-87.3068 432.485,-77.6994 427.599,-82.3228 428,-77.3389 428,-77.3389 428,-77.3389 427.599,-82.3228 423.514,-76.9784 427.198,-87.3068 427.198,-87.3068"/>
</g>
<!-- User&#45;&gt;Like -->
<g id="edge10" class="edge"><title>User&#45;&gt;Like</title>
<path fill="none" stroke="#05e3d8" d="M487.369,-444.243C489.532,-434.764 491.432,-425.319 493,-416 515.271,-283.638 538.86,-240.145 493,-114 489.273,-103.749 483.435,-93.9278 476.799,-84.9802"/>
<ellipse fill="none" stroke="#05e3d8" cx="486.409" cy="-448.318" rx="4.00001" ry="4.00001"/>
<polygon fill="#05e3d8" stroke="#05e3d8" points="476.713,-84.8714 474.051,-74.2336 473.615,-80.9464 470.518,-77.0213 470.518,-77.0213 470.518,-77.0213 473.615,-80.9464 466.985,-79.809 476.713,-84.8714 476.713,-84.8714"/>
</g>
<!-- User&#45;&gt;Project -->
<g id="edge8" class="edge"><title>User&#45;&gt;Project</title>
<path fill="none" stroke="#813f74" d="M413,-444.262C413,-438.126 413,-432.008 413,-425.932"/>
<ellipse fill="none" stroke="#813f74" cx="413" cy="-448.315" rx="4" ry="4"/>
<polygon fill="#813f74" stroke="#813f74" points="413,-425.751 417.5,-415.751 413,-420.751 413,-415.751 413,-415.751 413,-415.751 413,-420.751 408.5,-415.751 413,-425.751 413,-425.751"/>
</g>
<!-- User&#45;&gt;UserSpecialty -->
<g id="edge9" class="edge"><title>User&#45;&gt;UserSpecialty</title>
<path fill="none" stroke="#21b9a8" d="M332.38,-446.239C312.322,-396.292 292.643,-347.289 278.88,-313.016"/>
<ellipse fill="none" stroke="#21b9a8" cx="334.001" cy="-450.277" rx="4.00001" ry="4.00001"/>
<polygon fill="#21b9a8" stroke="#21b9a8" points="278.709,-312.59 279.159,-301.633 276.846,-307.95 274.983,-303.31 274.983,-303.31 274.983,-303.31 276.846,-307.95 270.807,-304.987 278.709,-312.59 278.709,-312.59"/>
</g>
<!-- Institution -->
<g id="node10" class="node"><title>Institution</title>
<path fill="none" stroke="black" d="M553.5,-234.5C553.5,-234.5 624.5,-234.5 624.5,-234.5 630.5,-234.5 636.5,-240.5 636.5,-246.5 636.5,-246.5 636.5,-283.5 636.5,-283.5 636.5,-289.5 630.5,-295.5 624.5,-295.5 624.5,-295.5 553.5,-295.5 553.5,-295.5 547.5,-295.5 541.5,-289.5 541.5,-283.5 541.5,-283.5 541.5,-246.5 541.5,-246.5 541.5,-240.5 547.5,-234.5 553.5,-234.5"/>
<text text-anchor="middle" x="589" y="-280.3" font-family="Times,serif" font-size="14.00">Institution</text>
<polyline fill="none" stroke="black" points="541.5,-272.5 636.5,-272.5 "/>
<text text-anchor="start" x="549.5" y="-257.3" font-family="Times,serif" font-size="14.00">id :INTEGER</text>
<text text-anchor="start" x="549.5" y="-242.3" font-family="Times,serif" font-size="14.00">name :varchar</text>
</g>
<!-- User&#45;&gt;Institution -->
<g id="edge11" class="edge"><title>User&#45;&gt;Institution</title>
<path fill="none" stroke="#232edc" d="M495.005,-484.235C506.001,-461.434 516.943,-438.209 527,-416 543.886,-378.708 561.574,-335.435 573.715,-304.979"/>
<polygon fill="#232edc" stroke="#232edc" points="494.98,-484.288 486.574,-491.33 492.802,-488.789 490.625,-493.29 490.625,-493.29 490.625,-493.29 492.802,-488.789 494.676,-495.249 494.98,-484.288 494.98,-484.288"/>
<polygon fill="#232edc" stroke="#232edc" points="573.763,-304.859 581.636,-297.226 575.608,-300.212 577.454,-295.565 577.454,-295.565 577.454,-295.565 575.608,-300.212 573.272,-293.904 573.763,-304.859 573.763,-304.859"/>
</g>
<!-- UserInstitution -->
<g id="node11" class="node"><title>UserInstitution</title>
<ellipse fill="none" stroke="black" cx="589" cy="-39" rx="63.5411" ry="18"/>
<text text-anchor="middle" x="589" y="-35.3" font-family="Times,serif" font-size="14.00">UserInstitution</text>
</g>
<!-- Institution&#45;&gt;UserInstitution -->
<g id="edge12" class="edge"><title>Institution&#45;&gt;UserInstitution</title>
<path fill="none" stroke="#c71b85" d="M589,-226.086C589,-181.056 589,-107.055 589,-67.2948"/>
<ellipse fill="none" stroke="#c71b85" cx="589" cy="-230.255" rx="4" ry="4"/>
<polygon fill="#c71b85" stroke="#c71b85" points="589,-67.2708 593.5,-57.2708 589,-62.2708 589,-57.2708 589,-57.2708 589,-57.2708 589,-62.2708 584.5,-57.2709 589,-67.2708 589,-67.2708"/>
</g>
</g>
</svg>
