<?xml version="1.0" encoding="UTF-8" standalone="no"?>
<!DOCTYPE svg PUBLIC "-//W3C//DTD SVG 1.1//EN"
 "http://www.w3.org/Graphics/SVG/1.1/DTD/svg11.dtd">
<!-- Generated by graphviz version 2.36.0 (20140111.2315)
 -->
<!-- Title: models_diagram Pages: 1 -->
<svg width="590pt" height="302pt"
 viewBox="0.00 0.00 590.00 302.00" xmlns="http://www.w3.org/2000/svg" xmlns:xlink="http://www.w3.org/1999/xlink">
<g id="graph0" class="graph" transform="scale(1 1) rotate(0) translate(4 298)">
<title>models_diagram</title>
<polygon fill="none" stroke="none" points="-4,4 -4,-298 586,-298 586,4 -4,4"/>
<!-- _diagram_info -->
<g id="node1" class="node"><title>_diagram_info</title>
<text text-anchor="start" x="8" y="-279.6" font-family="Times,serif" font-size="13.00">Models diagram</text>
<text text-anchor="start" x="8" y="-265.6" font-family="Times,serif" font-size="13.00">Date: Jan 23 2017 &#45; 17:52</text>
<text text-anchor="start" x="8" y="-251.6" font-family="Times,serif" font-size="13.00">Migration version: 20170112224323</text>
<text text-anchor="start" x="8" y="-237.6" font-family="Times,serif" font-size="13.00">Generated by RailRoady 1.5.2</text>
<text text-anchor="start" x="8" y="-223.6" font-family="Times,serif" font-size="13.00">http://railroady.prestonlee.com</text>
</g>
<!-- Specialty -->
<g id="node2" class="node"><title>Specialty</title>
<ellipse fill="none" stroke="black" cx="276" cy="-255" rx="43.319" ry="18"/>
<text text-anchor="middle" x="276" y="-251.3" font-family="Times,serif" font-size="14.00">Specialty</text>
</g>
<!-- ProjectSpecialty -->
<g id="node5" class="node"><title>ProjectSpecialty</title>
<ellipse fill="none" stroke="black" cx="238" cy="-18" rx="68.3664" ry="18"/>
<text text-anchor="middle" x="238" y="-14.3" font-family="Times,serif" font-size="14.00">ProjectSpecialty</text>
</g>
<!-- Specialty&#45;&gt;ProjectSpecialty -->
<g id="edge2" class="edge"><title>Specialty&#45;&gt;ProjectSpecialty</title>
<path fill="none" stroke="#47f70d" d="M258.869,-231.089C239.447,-203.549 208.934,-155.133 197,-108 193.073,-92.4895 191.827,-87.1408 197,-72 200.498,-61.7621 206.865,-51.9681 213.555,-43.6466"/>
<ellipse fill="none" stroke="#47f70d" cx="261.222" cy="-234.375" rx="4.00002" ry="4.00002"/>
<polygon fill="#47f70d" stroke="#47f70d" points="213.738,-43.4349 223.671,-38.7887 216.998,-39.6444 220.259,-35.854 220.259,-35.854 220.259,-35.854 216.998,-39.6444 216.848,-32.9193 213.738,-43.4349 213.738,-43.4349"/>
</g>
<!-- Project -->
<g id="node7" class="node"><title>Project</title>
<ellipse fill="none" stroke="black" cx="380" cy="-90" rx="35.6194" ry="18"/>
<text text-anchor="middle" x="380" y="-86.3" font-family="Times,serif" font-size="14.00">Project</text>
</g>
<!-- Specialty&#45;&gt;Project -->
<g id="edge1" class="edge"><title>Specialty&#45;&gt;Project</title>
<path fill="none" stroke="#c284db" d="M291.11,-228.876C304.693,-206.455 325.322,-172.811 344,-144 350.081,-134.62 356.936,-124.436 363.02,-115.526"/>
<polygon fill="#c284db" stroke="#c284db" points="291.093,-228.904 282.069,-235.134 288.506,-233.183 285.92,-237.462 285.92,-237.462 285.92,-237.462 288.506,-233.183 289.771,-239.79 291.093,-228.904 291.093,-228.904"/>
<polygon fill="#c284db" stroke="#c284db" points="363.132,-115.362 372.5,-109.663 365.96,-111.24 368.789,-107.117 368.789,-107.117 368.789,-107.117 365.96,-111.24 365.078,-104.571 363.132,-115.362 363.132,-115.362"/>
</g>
<!-- UserSpecialty -->
<g id="node8" class="node"><title>UserSpecialty</title>
<ellipse fill="none" stroke="black" cx="266" cy="-90" rx="59.1941" ry="18"/>
<text text-anchor="middle" x="266" y="-86.3" font-family="Times,serif" font-size="14.00">UserSpecialty</text>
</g>
<!-- Specialty&#45;&gt;UserSpecialty -->
<g id="edge4" class="edge"><title>Specialty&#45;&gt;UserSpecialty</title>
<path fill="none" stroke="#5763ad" d="M274.437,-228.52C272.601,-198.6 269.568,-149.164 267.683,-118.427"/>
<ellipse fill="none" stroke="#5763ad" cx="274.704" cy="-232.872" rx="4" ry="4"/>
<polygon fill="#5763ad" stroke="#5763ad" points="267.68,-118.378 271.559,-108.121 267.374,-113.387 267.067,-108.397 267.067,-108.397 267.067,-108.397 267.374,-113.387 262.576,-108.672 267.68,-118.378 267.68,-118.378"/>
</g>
<!-- User -->
<g id="node9" class="node"><title>User</title>
<ellipse fill="none" stroke="black" cx="380" cy="-162" rx="26.949" ry="18"/>
<text text-anchor="middle" x="380" y="-158.3" font-family="Times,serif" font-size="14.00">User</text>
</g>
<!-- Specialty&#45;&gt;User -->
<g id="edge3" class="edge"><title>Specialty&#45;&gt;User</title>
<path fill="none" stroke="#cb4b98" d="M301.328,-231.838C318.227,-217.051 340.279,-197.756 356.734,-183.358"/>
<polygon fill="#cb4b98" stroke="#cb4b98" points="301.168,-231.978 290.679,-235.176 297.405,-235.271 293.642,-238.563 293.642,-238.563 293.642,-238.563 297.405,-235.271 296.605,-241.95 301.168,-231.978 301.168,-231.978"/>
<polygon fill="#cb4b98" stroke="#cb4b98" points="356.79,-183.309 367.279,-180.11 360.553,-180.016 364.316,-176.724 364.316,-176.724 364.316,-176.724 360.553,-180.016 361.352,-173.337 356.79,-183.309 356.79,-183.309"/>
</g>
<!-- Country -->
<g id="node3" class="node"><title>Country</title>
<ellipse fill="none" stroke="black" cx="470" cy="-255" rx="39.4691" ry="18"/>
<text text-anchor="middle" x="470" y="-251.3" font-family="Times,serif" font-size="14.00">Country</text>
</g>
<!-- Status -->
<g id="node4" class="node"><title>Status</title>
<ellipse fill="none" stroke="black" cx="380" cy="-255" rx="32.2457" ry="18"/>
<text text-anchor="middle" x="380" y="-251.3" font-family="Times,serif" font-size="14.00">Status</text>
</g>
<!-- Status&#45;&gt;User -->
<g id="edge5" class="edge"><title>Status&#45;&gt;User</title>
<path fill="none" stroke="#7c07aa" d="M380,-228.729C380,-216.725 380,-202.362 380,-190.129"/>
<ellipse fill="none" stroke="#7c07aa" cx="380" cy="-232.884" rx="4" ry="4"/>
<polygon fill="#7c07aa" stroke="#7c07aa" points="380,-190.04 384.5,-180.04 380,-185.04 380,-180.04 380,-180.04 380,-180.04 380,-185.04 375.5,-180.04 380,-190.04 380,-190.04"/>
</g>
<!-- Like -->
<g id="node6" class="node"><title>Like</title>
<ellipse fill="none" stroke="black" cx="395" cy="-18" rx="27" ry="18"/>
<text text-anchor="middle" x="395" y="-14.3" font-family="Times,serif" font-size="14.00">Like</text>
</g>
<!-- Project&#45;&gt;ProjectSpecialty -->
<g id="edge6" class="edge"><title>Project&#45;&gt;ProjectSpecialty</title>
<path fill="none" stroke="#e11021" d="M348.207,-73.3276C327.449,-63.0944 300.176,-49.6499 277.955,-38.6959"/>
<ellipse fill="none" stroke="#e11021" cx="352.002" cy="-75.1979" rx="4.00002" ry="4.00002"/>
<polygon fill="#e11021" stroke="#e11021" points="277.744,-38.592 270.764,-30.1342 273.259,-36.3812 268.774,-34.1704 268.774,-34.1704 268.774,-34.1704 273.259,-36.3812 266.785,-38.2067 277.744,-38.592 277.744,-38.592"/>
</g>
<!-- Project&#45;&gt;Like -->
<g id="edge7" class="edge"><title>Project&#45;&gt;Like</title>
<path fill="none" stroke="#5a2257" d="M385.36,-63.9868C386.589,-58.2493 387.903,-52.1211 389.152,-46.2929"/>
<ellipse fill="none" stroke="#5a2257" cx="384.469" cy="-68.1437" rx="4.00001" ry="4.00001"/>
<polygon fill="#5a2257" stroke="#5a2257" points="389.203,-46.0533 395.698,-37.2182 390.25,-41.1643 391.298,-36.2753 391.298,-36.2753 391.298,-36.2753 390.25,-41.1643 386.898,-35.3324 389.203,-46.0533 389.203,-46.0533"/>
</g>
<!-- User&#45;&gt;Like -->
<g id="edge10" class="edge"><title>User&#45;&gt;Like</title>
<path fill="none" stroke="#e44cd8" d="M402.135,-141.145C410.702,-132.004 419.513,-120.43 424,-108 431.847,-86.2624 422.027,-61.211 411.746,-43.2356"/>
<ellipse fill="none" stroke="#e44cd8" cx="399.108" cy="-144.216" rx="4.00002" ry="4.00002"/>
<polygon fill="#e44cd8" stroke="#e44cd8" points="411.641,-43.064 410.257,-32.1858 409.03,-38.7998 406.419,-34.5356 406.419,-34.5356 406.419,-34.5356 409.03,-38.7998 402.582,-36.8854 411.641,-43.064 411.641,-43.064"/>
</g>
<!-- User&#45;&gt;Project -->
<g id="edge8" class="edge"><title>User&#45;&gt;Project</title>
<path fill="none" stroke="#198d6d" d="M380,-135.64C380,-130.063 380,-124.132 380,-118.476"/>
<ellipse fill="none" stroke="#198d6d" cx="380" cy="-139.697" rx="4" ry="4"/>
<polygon fill="#198d6d" stroke="#198d6d" points="380,-118.104 384.5,-108.104 380,-113.104 380,-108.104 380,-108.104 380,-108.104 380,-113.104 375.5,-108.104 380,-118.104 380,-118.104"/>
</g>
<!-- User&#45;&gt;UserSpecialty -->
<g id="edge9" class="edge"><title>User&#45;&gt;UserSpecialty</title>
<path fill="none" stroke="#165af2" d="M353.523,-144.742C337.48,-134.891 316.861,-122.23 299.666,-111.672"/>
<ellipse fill="none" stroke="#165af2" cx="357.253" cy="-147.032" rx="4.00002" ry="4.00002"/>
<polygon fill="#165af2" stroke="#165af2" points="299.551,-111.601 293.384,-102.534 295.29,-108.985 291.029,-106.369 291.029,-106.369 291.029,-106.369 295.29,-108.985 288.674,-110.203 299.551,-111.601 299.551,-111.601"/>
</g>
<!-- Institution -->
<g id="node10" class="node"><title>Institution</title>
<ellipse fill="none" stroke="black" cx="519" cy="-90" rx="46.1964" ry="18"/>
<text text-anchor="middle" x="519" y="-86.3" font-family="Times,serif" font-size="14.00">Institution</text>
</g>
<!-- User&#45;&gt;Institution -->
<g id="edge11" class="edge"><title>User&#45;&gt;Institution</title>
<path fill="none" stroke="#5c11ad" d="M410.224,-145.779C431.547,-135.041 460.213,-120.605 482.765,-109.248"/>
<polygon fill="#5c11ad" stroke="#5c11ad" points="410.043,-145.871 399.087,-146.349 405.577,-148.12 401.111,-150.369 401.111,-150.369 401.111,-150.369 405.577,-148.12 403.135,-154.388 410.043,-145.871 410.043,-145.871"/>
<polygon fill="#5c11ad" stroke="#5c11ad" points="482.771,-109.245 493.727,-108.766 487.237,-106.996 491.703,-104.747 491.703,-104.747 491.703,-104.747 487.237,-106.996 489.679,-100.728 482.771,-109.245 482.771,-109.245"/>
</g>
<!-- UserInstitution -->
<g id="node11" class="node"><title>UserInstitution</title>
<ellipse fill="none" stroke="black" cx="519" cy="-18" rx="63.5411" ry="18"/>
<text text-anchor="middle" x="519" y="-14.3" font-family="Times,serif" font-size="14.00">UserInstitution</text>
</g>
<!-- Institution&#45;&gt;UserInstitution -->
<g id="edge12" class="edge"><title>Institution&#45;&gt;UserInstitution</title>
<path fill="none" stroke="#3cb85d" d="M519,-63.6398C519,-58.0629 519,-52.1319 519,-46.4761"/>
<ellipse fill="none" stroke="#3cb85d" cx="519" cy="-67.6966" rx="4" ry="4"/>
<polygon fill="#3cb85d" stroke="#3cb85d" points="519,-46.1043 523.5,-36.1043 519,-41.1043 519,-36.1043 519,-36.1043 519,-36.1043 519,-41.1043 514.5,-36.1044 519,-46.1043 519,-46.1043"/>
</g>
</g>
</svg>
